# xmcd
#
# Track frame offsets:
#	150
#	16309
#	54365
#
# Disc length: 1167 seconds
#
# Revision: 0
# Processed by: cddbd v1.5.2PL0 Copyright (c) Steve Scherf et al.
# Submitted via: audiograbber 1.83.01
#
DISCID=19048d03
DTITLE=Jupiter City 1 - Tonight [CDM)
DYEAR=2005
DGENRE=Electronic
TTITLE0=Tonight (Radio Edit)
TTITLE1=Tonight (Original Version) 
TTITLE2=Tonight (JC1 Sound Desing)
EXTD=TR.
EXTT0=
EXTT1=
EXTT2=
PLAYORDER=
